<?xml version="1.0" encoding="utf-8"?>
<!-- Generator: Adobe Illustrator 18.1.1, SVG Export Plug-In . SVG Version: 6.00 Build 0)  -->
<svg version="1.1" xmlns="http://www.w3.org/2000/svg" xmlns:xlink="http://www.w3.org/1999/xlink" x="0px" y="0px"
	 viewBox="0 0 256 256" enable-background="new 0 0 256 256" xml:space="preserve">
<g id="Layer_1">
	<rect fill="#E33A3D" width="256" height="256"/>
	<text transform="matrix(1 0 0 1 60.1796 197.6667)"><tspan x="0" y="0" fill="#F2F2F2" font-family="'HelveticaNeue-Thin'" font-size="37">Coupon </tspan><tspan x="-9.2" y="44.4" fill="#F2F2F2" font-family="'HelveticaNeue-Thin'" font-size="37">Generator</tspan></text>
</g>
<g id="Layer_2">
	<g>
		<path fill="none" stroke="#FFFFFF" stroke-width="2" stroke-linecap="round" stroke-linejoin="round" stroke-miterlimit="10" d="
			M198.1,66.4c0-6.8,5.1-12.4,11.7-13.4c-1.1-3.9-2.6-7.6-4.5-11c-5.3,4-12.9,3.7-17.7-1.2c-4.8-4.8-5.2-12.4-1.2-17.7
			c-3.4-1.9-7.1-3.5-11-4.5c-0.9,6.6-6.5,11.7-13.4,11.7c-6.8,0-12.4-5.1-13.4-11.7c-3.9,1.1-7.6,2.6-11,4.5
			c4,5.3,3.7,12.9-1.2,17.7c-4.8,4.8-12.4,5.2-17.7,1.2c-1.9,3.4-3.5,7.1-4.5,11c6.6,0.9,11.7,6.5,11.7,13.4
			c0,6.8-5.1,12.4-11.7,13.4c1.1,3.9,2.6,7.6,4.5,11c5.3-4,12.9-3.7,17.7,1.2c4.8,4.8,5.2,12.4,1.2,17.7c3.4,1.9,7.1,3.5,11,4.5
			c0.9-6.6,6.5-11.7,13.4-11.7c6.8,0,12.4,5.1,13.4,11.7c3.9-1.1,7.6-2.6,11-4.5c-4-5.3-3.7-12.9,1.2-17.7
			c4.8-4.8,12.4-5.2,17.7-1.2c1.9-3.4,3.5-7.1,4.5-11C203.1,78.9,198.1,73.3,198.1,66.4z"/>
		<path fill="none" stroke="#FFFFFF" stroke-width="2" stroke-linecap="round" stroke-linejoin="round" stroke-miterlimit="10" d="
			M175.5,66.4c0,7.5-6.1,13.5-13.5,13.5c-7.5,0-13.5-6.1-13.5-13.5s6.1-13.5,13.5-13.5C169.4,52.9,175.5,59,175.5,66.4z"/>
		<path fill="none" stroke="#FFFFFF" stroke-width="2" stroke-linecap="round" stroke-linejoin="round" stroke-miterlimit="10" d="
			M189,66.4c0,15-12.1,27.1-27.1,27.1c-15,0-27.1-12.1-27.1-27.1s12.1-27.1,27.1-27.1C176.9,39.3,189,51.5,189,66.4z"/>
	</g>
	<g>
		<path fill="none" stroke="#FFFFFF" stroke-width="2" stroke-linecap="round" stroke-linejoin="round" stroke-miterlimit="10" d="
			M106.6,88c-1.7-4.9,0.6-10.2,5.1-12.5c-1.7-2.5-3.7-4.8-6-6.8c-2.8,4.2-8.3,5.8-13,3.5c-4.7-2.3-6.8-7.6-5.2-12.4
			c-2.9-0.5-6-0.7-9-0.5c1,5-1.8,10-6.7,11.7c-4.9,1.7-10.2-0.6-12.5-5.1c-2.5,1.7-4.8,3.7-6.8,6c4.2,2.8,5.8,8.3,3.5,13
			c-2.3,4.7-7.6,6.8-12.4,5.2c-0.5,2.9-0.7,6-0.5,9c5-1,10,1.8,11.7,6.7c1.7,4.9-0.6,10.2-5.1,12.5c1.7,2.5,3.7,4.8,6,6.8
			c2.8-4.2,8.3-5.8,13-3.5c4.7,2.3,6.8,7.6,5.2,12.4c2.9,0.5,6,0.7,9,0.5c-1-5,1.8-10,6.7-11.7c4.9-1.7,10.2,0.6,12.5,5.1
			c2.5-1.7,4.8-3.7,6.8-6c-4.2-2.8-5.8-8.3-3.5-13c2.3-4.7,7.6-6.8,12.4-5.2c0.5-3,0.7-6,0.5-9C113.4,95.6,108.3,92.9,106.6,88z"/>
		
			<circle fill="none" stroke="#FFFFFF" stroke-width="2" stroke-linecap="round" stroke-linejoin="round" stroke-miterlimit="10" cx="80.7" cy="96.9" r="10.3"/>
		<path fill="none" stroke="#FFFFFF" stroke-width="2" stroke-linecap="round" stroke-linejoin="round" stroke-miterlimit="10" d="
			M100.2,90.2c3.7,10.7-2,22.5-12.8,26.2c-10.7,3.7-22.5-2-26.2-12.8s2-22.5,12.8-26.2C84.7,73.8,96.5,79.5,100.2,90.2z"/>
	</g>
</g>
</svg>
